<svg xmlns="http://www.w3.org/2000/svg" width="400.897" height="120.814" viewBox="0 0 400.897 120.814">
  <g id="Amazon_logo" transform="translate(-0.364 -0.246)">
    <path id="path8" d="M277.4,133.444c-23.3,17.172-57.064,26.333-86.137,26.333A155.87,155.87,0,0,1,86.04,119.623c-2.181-1.972-.227-4.659,2.391-3.124,29.963,17.433,67.011,27.921,105.28,27.921A209.351,209.351,0,0,0,274.02,128c3.944-1.675,7.242,2.583,3.385,5.445" transform="translate(-28.333 -38.719)" fill="#f90"/>
    <path id="path10" d="M373.927,120.258c-2.967-3.8-19.684-1.8-27.188-.907-2.286.279-2.635-1.71-.576-3.141,13.315-9.371,35.163-6.666,37.711-3.525,2.548,3.159-.663,25.059-13.175,35.512-1.92,1.6-3.752.75-2.9-1.379,2.81-7.015,9.109-22.738,6.125-26.56" transform="translate(-115.169 -36.614)" fill="#f90"/>
    <path id="path12" d="M347.332,14.333V5.224a2.247,2.247,0,0,1,2.3-2.3h40.782a2.27,2.27,0,0,1,2.356,2.3v7.8c-.017,1.309-1.117,3.019-3.071,5.724L368.569,48.92c7.853-.192,16.142.977,23.262,4.991a4.15,4.15,0,0,1,2.164,3.543v9.72c0,1.326-1.466,2.879-3,2.077a46.979,46.979,0,0,0-43.086.07c-1.414.768-2.9-.768-2.9-2.094V57.995a11.015,11.015,0,0,1,1.5-6.265l24.483-35.111h-21.3a2.256,2.256,0,0,1-2.356-2.286" transform="translate(-115.239 -0.894)" fill="#221f1f"/>
    <path id="path14" d="M117.653,70.583H105.245a2.344,2.344,0,0,1-2.216-2.112V4.793a2.329,2.329,0,0,1,2.391-2.286h11.57a2.337,2.337,0,0,1,2.251,2.129V12.96h.227c3.019-8.045,8.69-11.8,16.334-11.8,7.766,0,12.617,3.752,16.107,11.8,3-8.045,9.825-11.8,17.137-11.8a17.635,17.635,0,0,1,14.362,6.963c3.926,5.357,3.124,13.14,3.124,19.964l-.017,40.189a2.343,2.343,0,0,1-2.391,2.3h-12.39a2.358,2.358,0,0,1-2.234-2.3V34.53c0-2.687.244-9.389-.349-11.936-.925-4.275-3.7-5.48-7.294-5.48a8.242,8.242,0,0,0-7.417,5.218c-1.274,3.211-1.152,8.586-1.152,12.2v33.75a2.343,2.343,0,0,1-2.391,2.3h-12.39a2.346,2.346,0,0,1-2.234-2.3l-.017-33.75c0-7.1,1.169-17.555-7.643-17.555-8.917,0-8.568,10.191-8.568,17.555v33.75a2.344,2.344,0,0,1-2.391,2.3" transform="translate(-34.328 -0.307)" fill="#221f1f"/>
    <path id="path16" d="M455.489,1.164c18.411,0,28.375,15.81,28.375,35.914,0,19.423-11.011,34.832-28.375,34.832-18.079,0-27.921-15.81-27.921-35.512,0-19.824,9.964-35.233,27.921-35.233m.1,13c-9.144,0-9.72,12.46-9.72,20.225,0,7.783-.122,24.4,9.615,24.4,9.615,0,10.069-13.4,10.069-21.569,0-5.375-.227-11.8-1.85-16.892-1.4-4.432-4.171-6.16-8.115-6.16" transform="translate(-142.843 -0.307)" fill="#221f1f"/>
    <path id="path18" d="M540.67,70.583H528.315a2.358,2.358,0,0,1-2.234-2.3l-.017-63.7a2.347,2.347,0,0,1,2.391-2.077h11.5a2.375,2.375,0,0,1,2.216,1.78v9.738h.227c3.473-8.708,8.341-12.861,16.91-12.861,5.567,0,10.994,2.007,14.484,7.5,3.246,5.1,3.246,13.664,3.246,19.824V68.576a2.384,2.384,0,0,1-2.391,2.007H562.2a2.35,2.35,0,0,1-2.2-2.007V33.989c0-6.963.8-17.154-7.766-17.154a8.109,8.109,0,0,0-7.172,5.1c-1.745,3.892-1.972,7.766-1.972,12.058V68.279a2.386,2.386,0,0,1-2.426,2.3" transform="translate(-175.777 -0.307)" fill="#221f1f"/>
    <path id="use28" d="M36.923,39.859V37.172c-8.97,0-18.445,1.92-18.445,12.495,0,5.357,2.775,8.987,7.539,8.987,3.49,0,6.614-2.146,8.586-5.637,2.443-4.293,2.321-8.324,2.321-13.158M49.436,70.1a2.591,2.591,0,0,1-2.932.3c-4.118-3.42-4.851-5.008-7.12-8.272-6.806,6.945-11.622,9.022-20.452,9.022C8.5,71.149.364,64.709.364,51.813c0-10.069,5.462-16.927,13.228-20.278,6.736-2.967,16.142-3.49,23.332-4.31V25.619c0-2.949.227-6.439-1.5-8.987C33.9,14.346,31.008,13.4,28.46,13.4c-4.729,0-8.952,2.426-9.982,7.451a2.6,2.6,0,0,1-2.146,2.269L4.29,21.833a2.2,2.2,0,0,1-1.85-2.6C5.215,4.644,18.391.246,30.187.246c6.038,0,13.926,1.605,18.69,6.178,6.038,5.637,5.462,13.158,5.462,21.342V47.1c0,5.811,2.408,8.359,4.677,11.5.8,1.117.977,2.461-.035,3.3-2.53,2.112-7.033,6.038-9.511,8.237l-.035-.035" transform="translate(162.659)" fill="#221f1f"/>
    <path id="path30" d="M36.923,39.859V37.172c-8.97,0-18.445,1.92-18.445,12.495,0,5.357,2.775,8.987,7.539,8.987,3.49,0,6.614-2.146,8.586-5.637,2.443-4.293,2.321-8.324,2.321-13.158M49.436,70.1a2.591,2.591,0,0,1-2.932.3c-4.118-3.42-4.851-5.008-7.12-8.272-6.806,6.945-11.622,9.022-20.452,9.022C8.5,71.149.364,64.709.364,51.813c0-10.069,5.462-16.927,13.228-20.278,6.736-2.967,16.142-3.49,23.332-4.31V25.619c0-2.949.227-6.439-1.5-8.987C33.9,14.346,31.008,13.4,28.46,13.4c-4.729,0-8.952,2.426-9.982,7.451a2.6,2.6,0,0,1-2.146,2.269L4.29,21.833a2.2,2.2,0,0,1-1.85-2.6C5.215,4.644,18.391.246,30.187.246c6.038,0,13.926,1.605,18.69,6.178,6.038,5.637,5.462,13.158,5.462,21.342V47.1c0,5.811,2.408,8.359,4.677,11.5.8,1.117.977,2.461-.035,3.3-2.53,2.112-7.033,6.038-9.511,8.237l-.035-.035" fill="#221f1f"/>
  </g>
</svg>
