<svg id="IIFL_Finance" data-name="IIFL Finance" xmlns="http://www.w3.org/2000/svg" xmlns:xlink="http://www.w3.org/1999/xlink" width="400" height="75.745" viewBox="0 0 400 75.745">
  <defs>
    <clipPath id="clip-path">
      <path id="Path_24172" data-name="Path 24172" d="M224,14h22.96V54.4H224Zm0,0" transform="translate(-224 -14)"/>
    </clipPath>
  </defs>
  <path id="Path_24166" data-name="Path 24166" d="M37.793,0A37.872,37.872,0,1,1,0,37.872,37.832,37.832,0,0,1,37.793,0Zm0,0" fill="#f26f21" fill-rule="evenodd"/>
  <path id="Path_24167" data-name="Path 24167" d="M35.789,70.42l6.733-9.258H29.056Zm0-9.258.947-1.854,2.735-5.319H32.12Zm0-35.282h3.518l-2.124-4.346-1.394-2.86-3.524,7.206Zm0-7.206h4.649L35.789,9.686l-4.649,8.988Zm0-8.988h5.694L35.789,2.25,30.1,9.686Zm15,51.476H42.522l5.214-7.173ZM68.645,45.185h-14.5l7.062-9.725Zm-14.5,0,4.55,8.8H47.743Zm-.27-19.3h14.3l-6.97,9.58Zm0,0-5.516-7.206h9.212ZM40.438,18.674h7.923l-4.182,7.206Zm7.923,0L41.483,9.686H53.555ZM35.789,53.983l4.024-8.8H31.778l3.1,6.792Zm0-13.545.493-.855,3.071-5.319H32.219Zm0-9.968h1.953l-1.953-4.589L33.836,30.47Zm3.682,23.519,4.524-8.8,3.748,8.8Zm4.51-8.8H39.813l2.163-4.747,2.012,4.747Zm-3.09-7.311,1.091,2.564H39.1Zm3.235-2.124,2.288,4.688H41.983Zm2.42-5.28-2.42,5.28L43.4,34.264,41.549,30.47Zm2.5,4.846,5.1,9.869H43.995l2.42-4.747Zm4.833-9.435-4.833,9.435-4.866-9.435ZM41.549,30.47l-2.242-4.589h4.872Zm0,0-2.2,3.794L37.742,30.47Zm-.658,7.4-1.539-3.61H43.4Zm-20.1,23.289h8.265l-5.214-7.173ZM2.934,45.185h14.5L10.37,35.461Zm14.5,0-4.55,8.8H23.836Zm.27-19.3H3.4l6.97,9.58Zm0,0,5.516-7.206H14.013Zm13.439-7.206H23.224L27.4,25.881Zm-7.916,0L30.1,9.686H18.03ZM35.789,45.185l-.723-1.032-2.584-3.715H39.09Zm-3.675,8.8-4.524-8.8-3.748,8.8Zm-4.517-8.8h4.169L29.6,40.438,27.59,45.185Zm3.1-7.311L29.6,40.438h2.88ZM27.452,35.75l-2.288,4.688H29.6Zm-2.413-5.28,2.42,5.28.723-1.486,1.854-3.794Zm-2.5,4.846-5.1,9.869H27.59l-2.42-4.747ZM17.7,25.881l4.833,9.435,4.859-9.435ZM30.029,30.47l2.236-4.589H27.393Zm0,0,2.189,3.794,1.617-3.794Zm.664,7.4,1.532-3.61H28.182Zm0,0" transform="translate(2.004 1.537)" fill="#fff" fill-rule="evenodd"/>
  <path id="Path_24168" data-name="Path 24168" d="M146.3,7.648h-8.265a4.6,4.6,0,0,0-4.583,4.589v45.4h23.94a4.535,4.535,0,0,0,4.517-4.524v-8.35H146.3Zm-82.938,0H55.23a4.738,4.738,0,0,0-4.714,4.727V57.639h8.127a4.74,4.74,0,0,0,4.721-4.727Zm35.426,0h27.543v8.357a4.529,4.529,0,0,1-4.517,4.517H107.055V26.94H123.1v8.35a4.53,4.53,0,0,1-4.517,4.524H107.055V53.049a4.6,4.6,0,0,1-4.583,4.589H94.207V12.244A4.6,4.6,0,0,1,98.79,7.648Zm-13.577,0H77.079a4.738,4.738,0,0,0-4.714,4.727V57.639h8.127a4.74,4.74,0,0,0,4.721-4.727Zm0,0" transform="translate(34.513 5.226)" fill="#242056" fill-rule="evenodd"/>
  <path id="Path_24169" data-name="Path 24169" d="M210.547,52.713a3.443,3.443,0,0,1-1.558-.342h-.007A2.583,2.583,0,0,1,207.8,51.2L195.667,28.3V50.925a1.8,1.8,0,0,1-1.788,1.788h-3.5a1.8,1.8,0,0,1-1.788-1.788V16.656a1.8,1.8,0,0,1,1.788-1.788h3.708a3.919,3.919,0,0,1,2.071.434,2.838,2.838,0,0,1,.638.565,4.272,4.272,0,0,1,.454.671l.007.026,11.993,22.664V16.656a1.793,1.793,0,0,1,1.782-1.788h3.511a1.8,1.8,0,0,1,1.788,1.788V50.925a1.8,1.8,0,0,1-1.788,1.788Zm0,0" transform="translate(128.845 10.157)" fill="#242056"/>
  <path id="Path_24170" data-name="Path 24170" d="M171.011,52.713a3.443,3.443,0,0,1-1.558-.342h-.007a2.582,2.582,0,0,1-1.184-1.17L156.132,28.293V50.918a1.8,1.8,0,0,1-1.788,1.788h-3.5a1.8,1.8,0,0,1-1.788-1.788V16.656a1.8,1.8,0,0,1,1.788-1.788h3.708a3.919,3.919,0,0,1,2.071.434,2.837,2.837,0,0,1,.638.565,4.268,4.268,0,0,1,.454.671l.007.026L169.71,39.228V16.656a1.789,1.789,0,0,1,1.782-1.788H175a1.8,1.8,0,0,1,1.788,1.788V50.925A1.8,1.8,0,0,1,175,52.713Zm0,0" transform="translate(101.834 10.157)" fill="#242056"/>
  <g id="Group_25856" data-name="Group 25856" transform="translate(377.04 23.565)" clip-path="url(#clip-path)">
    <path id="Path_24171" data-name="Path 24171" d="M231.533,14.867h13.407a1.8,1.8,0,0,1,1.788,1.788v3.518a1.8,1.8,0,0,1-1.788,1.795H233.361a1.947,1.947,0,0,0-1.94,1.94v6.338h13.518a1.8,1.8,0,0,1,1.788,1.788v3.518a1.8,1.8,0,0,1-1.788,1.788H231.421v6.332a1.945,1.945,0,0,0,1.94,1.946h11.579a1.8,1.8,0,0,1,1.788,1.795v3.511a1.8,1.8,0,0,1-1.788,1.795H231.533a7.219,7.219,0,0,1-7.193-7.206V22.073A7.223,7.223,0,0,1,231.533,14.867Zm0,0" transform="translate(-223.768 -13.408)" fill="#242056" fill-rule="evenodd"/>
  </g>
  <path id="Path_24173" data-name="Path 24173" d="M132.762,14.867h13.407a1.8,1.8,0,0,1,1.788,1.788v3.518a1.8,1.8,0,0,1-1.788,1.795H134.59a1.947,1.947,0,0,0-1.94,1.94v6.338h13.518a1.8,1.8,0,0,1,1.788,1.788v3.518a1.8,1.8,0,0,1-1.788,1.788H132.65V50.925a1.8,1.8,0,0,1-1.788,1.795h-3.511a1.8,1.8,0,0,1-1.788-1.795V22.073A7.233,7.233,0,0,1,132.762,14.867Zm0,0" transform="translate(85.786 10.157)" fill="#242056" fill-rule="evenodd"/>
  <path id="Path_24174" data-name="Path 24174" d="M177.446,18.091l-9.271,32.6a1.563,1.563,0,0,0,1.644,2.058h2.63a3.075,3.075,0,0,0,2.814-2.058l2.531-8.929h10.9l2.538,8.929a3.059,3.059,0,0,0,2.814,2.058h2.63a1.563,1.563,0,0,0,1.637-2.058l-9.271-32.6C187.8,13.679,178.676,13.771,177.446,18.091Zm9.238,16.576h-6.871l3.432-12.078Zm0,0" transform="translate(114.848 10.123)" fill="#242056" fill-rule="evenodd"/>
  <path id="Path_24175" data-name="Path 24175" d="M141.832,16.656V50.925a1.8,1.8,0,0,0,1.788,1.788h3.511a1.789,1.789,0,0,0,1.782-1.788V16.656a1.793,1.793,0,0,0-1.782-1.788H143.62A1.8,1.8,0,0,0,141.832,16.656Zm0,0" transform="translate(96.902 10.157)" fill="#242056" fill-rule="evenodd"/>
  <path id="Path_24176" data-name="Path 24176" d="M228.671,14.867h-7.094a.566.566,0,0,0-.105.007l-.355-.007a14.846,14.846,0,0,0-3.445.388,12.169,12.169,0,0,0-3.5,1.394,10.871,10.871,0,0,0-3.1,2.768,13.583,13.583,0,0,0-2.17,4.445,22.387,22.387,0,0,0-.828,6.378v7.094a21.862,21.862,0,0,0,.828,6.305,13.521,13.521,0,0,0,2.17,4.432,11.367,11.367,0,0,0,3.1,2.794,12.269,12.269,0,0,0,3.5,1.433,14.533,14.533,0,0,0,3.452.408l.355-.007c.033,0,.072.007.112.007h7.094a1.8,1.8,0,0,0,1.788-1.788V47.4a1.8,1.8,0,0,0-1.788-1.788h-7.509a5.5,5.5,0,0,1-3.031-.618,5.215,5.215,0,0,1-2.019-2.577,13.82,13.82,0,0,1-.8-5.083V30.24a15.872,15.872,0,0,1,.46-4.136c.815-2.978,2.564-4.155,5.385-4.136h7.5a1.8,1.8,0,0,0,1.788-1.795V16.662A1.8,1.8,0,0,0,228.671,14.867Zm0,0" transform="translate(142.162 10.157)" fill="#242056" fill-rule="evenodd"/>
</svg>
