<svg xmlns="http://www.w3.org/2000/svg" xmlns:xlink="http://www.w3.org/1999/xlink" width="400" height="105" viewBox="0 0 400 105">
  <defs>
    <clipPath id="clip-path">
      <rect id="Rectangle_65" data-name="Rectangle 65" width="400" height="105"/>
    </clipPath>
  </defs>
  <g id="L_Oréal_" data-name="L’Oréal " clip-path="url(#clip-path)">
    <path id="Path_1031" data-name="Path 1031" d="M230.859,46.813V41.034h8.923V37.557h-8.923V32.185h11.025V28.706H227.051V50.288h14.834V46.811ZM199.244,32.253a3.685,3.685,0,0,1,1.5.225,3.74,3.74,0,0,1,1.291.813,3.821,3.821,0,0,1,.87,1.267,3.891,3.891,0,0,1,0,3.029,3.821,3.821,0,0,1-.87,1.267,3.74,3.74,0,0,1-1.291.813,3.685,3.685,0,0,1-1.5.225h-5.7V32.253Zm-9.5,18.041h3.807V43.4h5.665c4.752,0,7.828-2.888,7.828-7.391,0-4.409-3.106-7.3-7.828-7.3h-9.474Zm-39.2-21.582V41.941c0,5.31,3.777,8.664,9.137,8.664s9.138-3.354,9.138-8.633V28.712H165.04v13.26c0,2.919-2.01,5.031-5.359,5.031-3.289,0-5.33-2.111-5.33-5.062V28.708ZM119.78,47a7.3,7.3,0,0,1-5.016-2.3,7.612,7.612,0,0,1,0-10.4A7.3,7.3,0,0,1,119.78,32c3.99,0,7.035,3.074,7.035,7.513a7.251,7.251,0,0,1-.431,2.849,7.142,7.142,0,0,1-1.5,2.441,6.98,6.98,0,0,1-2.328,1.634,6.87,6.87,0,0,1-2.773.56Zm0-18.6a10.743,10.743,0,0,0-6.036,1.892,11.059,11.059,0,0,0-3.991,4.989,11.3,11.3,0,0,0-.6,6.408,11.17,11.17,0,0,0,2.986,5.673,10.83,10.83,0,0,0,5.572,3.029,10.7,10.7,0,0,0,6.284-.633,10.939,10.939,0,0,0,4.883-4.083,11.258,11.258,0,0,0,1.84-6.159,11.068,11.068,0,0,0-.767-4.3,10.9,10.9,0,0,0-2.365-3.645A10.65,10.65,0,0,0,124,29.17,10.486,10.486,0,0,0,119.78,28.4ZM81.616,32.253c2.558,0,3.959,1.552,3.959,3.513,0,2.049-1.371,3.6-3.959,3.6H76.529V32.253ZM72.722,50.294h3.807V42.9h4.355l5.391,7.39h4.508l-6.125-8.229a6.312,6.312,0,0,0,3.492-2.376,6.526,6.526,0,0,0,1.26-4.083c0-4.2-3.076-6.894-7.827-6.894H72.72ZM52.285,38.585H43.178v3.2H48.72v4.285a10.041,10.041,0,0,1-4.6.963c-4.355,0-7.584-2.8-7.584-7.546A7.388,7.388,0,0,1,37.03,36.6,7.279,7.279,0,0,1,38.6,34.15a7.123,7.123,0,0,1,2.392-1.621A7.006,7.006,0,0,1,43.816,32a8.005,8.005,0,0,1,3.205.563,8.132,8.132,0,0,1,2.734,1.8l2.255-2.888A11.554,11.554,0,0,0,43.816,28.4,10.839,10.839,0,0,0,32.668,39.486c0,6.738,4.752,11.117,11.453,11.117a14.49,14.49,0,0,0,8.162-2.423Z" transform="translate(62.719 54.514)"/>
    <path id="Path_1032" data-name="Path 1032" d="M74.533,62.273h51.62V55.848H83.379V35.274h32.128v-6.5H83.379V9.821h42.77V3.412H74.533Z" transform="translate(143.094 6.551)"/>
    <path id="Path_1033" data-name="Path 1033" d="M88.313.154l-6.986,8,21.94-8Z" transform="translate(156.137 0.295)"/>
    <path id="Path_1034" data-name="Path 1034" d="M119.128,3.413V62.27h52.184V55.845H127.193V3.413Z" transform="translate(228.711 6.552)"/>
    <path id="Path_1035" data-name="Path 1035" d="M122.967,3.413,93.614,62.273h9.921l7.51-15.235h35.208l7.574,15.235h9.822L134.267,3.413ZM114.76,39.661l13.831-28.114,14,28.114Z" transform="translate(179.727 6.552)"/>
    <path id="Path_1036" data-name="Path 1036" d="M92.665,37.662c13.227-3.6,14.51-13.636,14.445-17.221C106.321,9.927,99.371,3.413,86.886,3.413H50.5V62.27h8.3V37.576H82.481L99.906,62.261h10.458s-12.537-16.616-17.7-24.608Zm-6.913-7.046H58.793V10.38h27.9c6.418,0,10.034,3.056,11.335,6.939a11.183,11.183,0,0,1-1.114,8.538c-2.332,3.934-6.76,4.767-11.163,4.767" transform="translate(96.949 6.553)"/>
    <path id="Path_1037" data-name="Path 1037" d="M59.034,66.482a29.57,29.57,0,1,1,.628-59.134,28.808,28.808,0,0,1,11.288,2.2,29.26,29.26,0,0,1,9.588,6.46,29.913,29.913,0,0,1,6.414,9.723A30.378,30.378,0,0,1,89.2,37.223C89.2,53.211,75.231,66.482,59.034,66.482ZM59.315,0C35.9,0,19.94,16.832,19.94,37.2c0,21.447,17.632,36.589,39.375,36.589S98.669,58.869,98.669,37.2C98.669,16.832,82.514,0,59.315,0Z" transform="translate(38.283)"/>
    <path id="Path_1038" data-name="Path 1038" d="M12.786,24.234H18.77L29.635,3.413H20.892Z" transform="translate(24.548 6.553)"/>
    <path id="Path_1039" data-name="Path 1039" d="M0,3.413V62.27H52.179V55.845H8.072V3.413Z" transform="translate(0 6.552)"/>
  </g>
</svg>
