<svg xmlns="http://www.w3.org/2000/svg" width="400" height="243.853" viewBox="0 0 400 243.853">
  <g id="Max_Life_Insurance" data-name="Max Life Insurance" transform="translate(367 -232)">
    <g id="Group_30249" data-name="Group 30249" transform="translate(-367 232)">
      <path id="Path_106727" data-name="Path 106727" d="M62.694,100.48l24.228,21.012a36.2,36.2,0,0,1,11.295,28.961c0,25.585-26.355,37.65-35.333,59.1a42.74,42.74,0,0,0-3.811,19.4c.206,2.507,1.753,12.956,4.794,13.673,22.78,5.335,41.445-10.67,34.121-36.232A32.94,32.94,0,0,0,91.8,192.287h1.433l24.228,21.386A26.34,26.34,0,0,1,125.3,230.44a34.06,34.06,0,0,1-33.648,36.11,30.249,30.249,0,0,1-19.96-7.126L43.877,235.15a31.331,31.331,0,0,1-10.06-26.286c0-24.106,19.534-38.046,28.4-58.768a61.063,61.063,0,0,0,4.862-25.722,34.739,34.739,0,0,0-5.236-22.765Z" transform="translate(-7.599 -100.48)" fill="#f27930" fill-rule="evenodd"/>
      <path id="Path_106728" data-name="Path 106728" d="M115.155,333.608c.076.069,26.881,22.948,29.1,24.869l-1.448.411a45.682,45.682,0,0,0-28.466-10.022,75.465,75.465,0,0,0-29.426,5.762q-6.448,2.378-12.8,4.946A41.842,41.842,0,0,1,52.027,363a56.011,56.011,0,0,1-28.2-16.1L.27,326.581c.107.069,1.341-.419,1.448-.358a64.437,64.437,0,0,0,43.64,9.222c6.592-.907,30.851-12.7,37.993-12.758a48.785,48.785,0,0,1,13.414.686,48.373,48.373,0,0,1,18.4,10.228" transform="translate(-0.27 -148.332)" fill="#143a72" fill-rule="evenodd"/>
    </g>
    <g id="Group_30253" data-name="Group 30253" transform="translate(-231.82 248.927)">
      <g id="Group_30250" data-name="Group 30250" transform="translate(0 97.34)">
        <path id="Path_106729" data-name="Path 106729" d="M174.85,321.892c5.609-.335,9.847-.907,10.35-2.942a28.505,28.505,0,0,0,.5-6.905V259.458a28.594,28.594,0,0,0-.5-6.912c-.5-2.035-4.74-2.607-10.35-2.942V246.09H214.1V249.6c-5.609.335-9.847.907-10.35,2.942a28.2,28.2,0,0,0-.5,6.913v53.35c0,7.7,4.611,8.384,14.717,8.384,15.959,0,18.329-6.234,23.436-16.317h3.5l-3.735,20.517H174.85Z" transform="translate(-174.85 -246.082)" fill="#f27930"/>
        <path id="Path_106730" data-name="Path 106730" d="M303.235,312.035a28.456,28.456,0,0,0,.5,6.905c.5,2.042,4.74,2.614,10.357,2.949V325.4H274.8V321.89c5.609-.335,9.847-.907,10.342-2.949a28.026,28.026,0,0,0,.5-6.905V259.448a28.2,28.2,0,0,0-.5-6.913c-.5-2.035-4.725-2.606-10.342-2.942V246.08h39.288v3.513c-5.617.335-9.854.907-10.358,2.942a28.6,28.6,0,0,0-.5,6.913Z" transform="translate(-196.361 -246.08)" fill="#f27930"/>
        <path id="Path_106731" data-name="Path 106731" d="M336.938,246.08h61.344v18.246h-3.368c-1.86-8.048-4.984-14.054-13.718-14.054H365.358v34h11.851A10.091,10.091,0,0,0,388.558,273.4h3.369v26.4h-3.4c-.366-6.242-2.988-11.333-11.348-11.333H365.327v23.565a28.047,28.047,0,0,0,.5,6.905c.5,2.042,4.74,2.614,10.342,2.949V325.4H336.93v-3.513c5.609-.335,9.847-.907,10.35-2.949a28.466,28.466,0,0,0,.5-6.9V259.44a28.615,28.615,0,0,0-.5-6.913c-.5-2.035-4.741-2.606-10.35-2.942V246.08Z" transform="translate(-209.737 -246.08)" fill="#f27930"/>
        <path id="Path_106732" data-name="Path 106732" d="M422.59,321.892c5.48-.335,9.839-.907,10.35-2.942a28.566,28.566,0,0,0,.5-6.905V259.458a28.64,28.64,0,0,0-.5-6.913c-.511-2.035-4.863-2.606-10.35-2.942V246.09h61.222v18.246h-3.369c-1.875-8.056-4.855-14.046-13.589-14.046H451.018v31.7H461.36a9.908,9.908,0,0,0,11.219-10.876h3.368v26.4h-3.369a10.243,10.243,0,0,0-11.219-11.333H451.018V311.9c0,8.612,4.573,9.29,14.839,9.29,15.83,0,18.208-6.234,23.436-16.317h3.376l-3.734,20.517H422.628Z" transform="translate(-228.169 -246.082)" fill="#f27930"/>
      </g>
      <g id="Group_30251" data-name="Group 30251" transform="translate(0.35 0)">
        <path id="Path_106733" data-name="Path 106733" d="M437.7,199.7c-4.177-.572-5.739-2.934-10.563-9.793l-23.1-33.046,18.291-24.922a15.518,15.518,0,0,1,9.5-4.725,4.665,4.665,0,0,0,2.957-3.856h-25.57a4.519,4.519,0,0,0,2.949,4.154c2.728,1.067,4.276,3.483,1.707,7.057L400.489,152.4l-11.546-17.262c-3.674-5.5-1.524-7.576,1.89-8.086a3.918,3.918,0,0,0,2.744-3.7h-33.9a4.161,4.161,0,0,0,2.98,3.963,14.945,14.945,0,0,1,9.009,6.791l19.1,28.809L372.351,188.41a32.176,32.176,0,0,1-7.469,8.909,4.915,4.915,0,0,1-5.6.114h0a20.393,20.393,0,0,1-5.228-7.964c-4.512-10.982-19.282-48.6-26.6-67.464h-7.934c-10.251,25.151-25.151,62.328-29.525,70.879a12.384,12.384,0,0,1-9.748,6.913s-9.016,1.486-9.961-5.076c-.137-1.357-.137-2.8-.137-4.817V138.078c0-6.5,2.088-10.2,8.262-11.028h0a3.658,3.658,0,0,0,2.683-3.712H259.067l-30.752,59.34-29.388-59.34H175.3s-.069,3.384,2.408,3.582h0c4.748.32,8.551,2.012,9.222,10.106v49.539a68.292,68.292,0,0,1-.564,7.553c-.442,2.957-2.393,4.573-6.158,5.335h0a3.978,3.978,0,0,0-3.392,3.955h25.913v-.32a4.337,4.337,0,0,0-3.369-3.613c-3.811-.724-5.884-2.332-6.257-5.335a37.677,37.677,0,0,1-.572-7.553V144.511h.236l28.7,58.89h2.736l29.5-57.054h.343v43.564a31.532,31.532,0,0,1-.457,6.974c-.335,1.524-2.614,2.248-5.884,2.645a3.978,3.978,0,0,0-3.171,3.872h58.685a4.573,4.573,0,0,0-3.2-4.077c-2.988-1.158-3.742-4.093-2.416-7.812l4.87-13.6h29.784l5,13.376c1.479,3.811,1.212,6.745-1.9,7.964a4.657,4.657,0,0,0-3.59,4.154h48.015a4.2,4.2,0,0,0-3.193-4.276h0c-2.05-1.235-2.34-4.123,1.524-9.519L394,167.649l16.119,23.329c4.016,5.99,2.286,8-.648,8.643a4.238,4.238,0,0,0-3.1,3.811h33.389a3.948,3.948,0,0,0-2.02-3.7M304.688,172.786l13.132-33.427h.236l12.1,33.389Z" transform="translate(-175.3 -122.005)" fill="#143a72"/>
      </g>
      <g id="Group_30252" data-name="Group 30252" transform="translate(5.396 198.011)">
        <rect id="Rectangle_30188" data-name="Rectangle 30188" width="5.076" height="28.001" transform="translate(0 0.511)" fill="#143a72"/>
        <path id="Path_106734" data-name="Path 106734" d="M220.635,397.811h-.076l-8.384-22.6-.076-.206H204.02v28H209.1v-22.8h.038l8.559,22.605.069.2h7.873V375.023h-5.007Z" transform="translate(-186.529 -374.512)" fill="#143a72"/>
        <path id="Path_106735" data-name="Path 106735" d="M256.827,386.767c-4.641-1.448-5.64-2.225-5.64-4.382,0-2.66,2.462-3.208,4.527-3.208,2.286,0,7.621.541,7.682.549h.32l.183-4.352-.252-.046a48.762,48.762,0,0,0-8.178-.922c-5.99,0-9.29,2.843-9.29,7.98s2.492,6.783,8.094,8.6c3.994,1.219,5.335,1.936,5.335,3.872,0,2.614-1.417,3.727-4.756,3.727-2.446,0-7.621-.587-7.69-.587l-.313-.038-.282,4.474.274.046a59.589,59.589,0,0,0,8.384.838c6.531,0,9.443-2.66,9.443-8.62,0-4.87-2.37-6.166-7.8-7.972" transform="translate(-195.605 -374.405)" fill="#143a72"/>
        <path id="Path_106736" data-name="Path 106736" d="M297.856,393.987c0,3.239-1.486,4.573-5.122,4.573s-5-1.319-5-4.573V375.01H282.69v18.977c0,6.509,3.1,9.412,10.045,9.412s10.159-2.9,10.159-9.412V375.01h-5.038Z" transform="translate(-203.458 -374.499)" fill="#143a72"/>
        <path id="Path_106737" data-name="Path 106737" d="M343.85,384.066c0-6.013-3.193-9.054-9.488-9.054H324.21v28h5.007v-9.618h5.419l3.864,9.656h5.54l-4.466-10.883a8.108,8.108,0,0,0,4.276-8.064m-14.625-4.375h5.144a4.032,4.032,0,0,1,4.321,4.444,4.115,4.115,0,0,1-4.245,4.687h-5.228Z" transform="translate(-212.397 -374.486)" fill="#143a72"/>
        <path id="Path_106738" data-name="Path 106738" d="M376.72,375.01H367.8l-6.691,27.627-.092.374h5.053l1.425-5.655h9.275l1.616,5.655h5.053l-6.661-27.765Zm-4,4.489,3.049,13.132H368.58l3.14-13.132Z" transform="translate(-220.322 -374.499)" fill="#143a72"/>
        <path id="Path_106739" data-name="Path 106739" d="M419.524,397.8H419.4l-8.384-22.6v-.19H402.94v28h5.076v-22.8l8.582,22.605.076.2h7.888V375.01h-5.045Z" transform="translate(-229.34 -374.499)" fill="#143a72"/>
        <path id="Path_106740" data-name="Path 106740" d="M462.613,397.96c-.046,0-4.786.51-6.608.51-4.474,0-5.83-2.225-5.83-9.549s1.334-9.626,5.716-9.626c2.058,0,6.676.541,6.73.549l.32.038.19-4.5-.251-.046a46.16,46.16,0,0,0-7.621-.922c-8.559,0-10.312,5.807-10.312,14.481,0,8.886,1.73,14.389,10.312,14.389a58.486,58.486,0,0,0,7.538-.762l.267-.046-.145-4.573Z" transform="translate(-238.4 -374.372)" fill="#143a72"/>
        <path id="Path_106741" data-name="Path 106741" d="M499.28,379.7V375.01H482.01v28h17.27v-4.725H487.017v-6.905h9.907v-4.573h-9.907v-7.08Z" transform="translate(-246.357 -374.499)" fill="#143a72"/>
      </g>
    </g>
  </g>
</svg>
