<svg xmlns="http://www.w3.org/2000/svg" width="400" height="108.16" viewBox="0 0 400 108.16">
  <g id="SpiceJet_-_Flight_Booking_for_Domestic_and_International_Cheap_Air_Tickets-17" data-name="SpiceJet - Flight Booking for Domestic and International, Cheap Air Tickets-17" transform="translate(-0.539 -0.076)">
    <path id="Path_102454" data-name="Path 102454" d="M97.705,57.863c-3.063,2.971-7.264,3.844-9.014,2.1s-.876-6.028,2.187-9,7.176-3.933,8.927-2.184c1.751,1.66.963,6.116-2.1,9.086" transform="translate(7.275 3.988)" fill="#fcd20a"/>
    <path id="Path_102455" data-name="Path 102455" d="M108.987,57.277c-2.188,2.446-5.164,3.319-6.652,2.1-1.4-1.223-.875-4.456,1.313-6.9,2.188-2.36,5.251-3.5,6.652-2.273,1.487,1.311.874,4.63-1.313,7.078" transform="translate(8.422 4.137)" fill="#fcd800"/>
    <path id="Path_102456" data-name="Path 102456" d="M62.262,42.6a16.029,16.029,0,0,0-13.74,4.369c-4.114,4.019-7.09,9.609-5.427,14.153.612,1.835,3.326,3.67,5.427,3.757a18.13,18.13,0,0,0,12.253-4.718A17.384,17.384,0,0,0,66.289,48.8a8.823,8.823,0,0,0-.176-2.1A5.722,5.722,0,0,0,62.262,42.6" transform="translate(3.509 3.524)" fill="#f8a81b"/>
    <path id="Path_102457" data-name="Path 102457" d="M82.483,58.485c-4.114,3.932-10.151,5.33-12.515,3.058-2.363-2.36-.963-8.125,3.15-12.058,4.026-3.93,9.8-4.892,12.078-2.533,2.362,2.272,1.312,7.6-2.714,11.532" transform="translate(5.693 3.802)" fill="#f9bb16"/>
    <path id="Path_102458" data-name="Path 102458" d="M107.006,40.521c-2.538,3.407-6.565,4.892-8.577,3.495s-2.013-5.767.438-9.174c2.537-3.407,6.652-5.155,8.664-3.757s2.013,6.029-.524,9.436" transform="translate(8.039 2.545)" fill="#fcd20a"/>
    <path id="Path_102459" data-name="Path 102459" d="M115.8,43.745c-2.012,2.8-4.988,4.106-6.651,2.971s-1.4-4.456.613-7.251c2.013-2.708,5.076-4.281,6.739-3.146,1.575,1.136,1.313,4.718-.7,7.426" transform="translate(8.963 2.99)" fill="#fcd800"/>
    <path id="Path_102460" data-name="Path 102460" d="M77.479,31.164C72.4,37.279,64.613,39.725,61.287,36.58c-3.85-3.757-4.026-9.7,1.663-16.862C69.076,12.03,75.9,11.68,79.492,14.563c3.5,2.884,3.063,10.485-2.013,16.6" transform="translate(4.834 1.069)" fill="#f9b517"/>
    <path id="Path_102461" data-name="Path 102461" d="M94.6,36.312c-3.764,6.29-9.539,6.378-12.077,4.368-2.538-2.1-1.838-8.039,1.837-12.407s9.452-6.116,11.815-3.757c1.926,1.923,1.313,6.9-1.575,11.8" transform="translate(6.709 1.95)" fill="#fac113"/>
    <path id="Path_102462" data-name="Path 102462" d="M57.882,1.129c-13.3-5.59-26.694,12.407-25.643,22.542.874,7.775,5.777,10.92,12.777,9.873a.533.533,0,0,1,.351-.087c7.352-.962,13.477-6.991,16.279-12.232a20.432,20.432,0,0,0,2.013-6.291c.087-.873.174-1.834.174-2.708-.087-4.8-1.837-9.348-5.951-11.1" transform="translate(2.638 0)" fill="#f7a11c"/>
    <path id="Path_102463" data-name="Path 102463" d="M31.691,38.258a22.281,22.281,0,0,0-8.577,3.495,25.533,25.533,0,0,0-9.89,9.873c-2.537,4.892-2.188,9.348-.087,12.406a7.99,7.99,0,0,0,3.676,3.233,17.233,17.233,0,0,0,2.275.7,15.883,15.883,0,0,0,7.789-.262c8.4-2.272,18.029-11.445,17.942-20.094.087-8.475-6.126-10.834-13.128-9.349" transform="translate(0.909 3.149)" fill="#f7991d"/>
    <path id="Path_102464" data-name="Path 102464" d="M106.722,69.61c-2.363,2.272-5.339,2.971-6.739,1.661-1.313-1.311-.613-4.456,1.75-6.728s5.427-3.145,6.826-1.835.525,4.63-1.837,6.9" transform="translate(8.236 5.17)" fill="#fcd800"/>
    <path id="Path_102465" data-name="Path 102465" d="M93.475,73.706c-3.15,2.8-7.176,3.495-8.839,1.66-1.575-1.834-.35-5.591,2.888-8.387,3.238-2.708,7-3.495,8.665-1.66,1.663,1.922.524,5.591-2.714,8.387" transform="translate(6.954 5.356)" fill="#fcd20a"/>
    <path id="Path_102466" data-name="Path 102466" d="M75.79,79.426C71.5,83.1,66.162,84.056,63.975,81.61s-.438-7.426,3.85-11.1,9.365-4.63,11.553-2.184c2.275,2.446.7,7.426-3.588,11.1" transform="translate(5.21 5.578)" fill="#f9bd15"/>
    <path id="Path_102467" data-name="Path 102467" d="M54.323,70.914c-8.577-2.446-22.143,8.475-20.217,17.037.438,1.922,3.15,3.669,5.251,3.932,8.577.873,18.2-8.212,18.729-14.766A19.88,19.88,0,0,1,58,74.845a5.411,5.411,0,0,0-3.677-3.932" transform="translate(2.783 5.877)" fill="#f9a81a"/>
    <path id="Path_102468" data-name="Path 102468" d="M34.089,80.093c-1.576-6.464-9.452-5.94-14.7-4.455a24.464,24.464,0,0,0-5.775,2.184,27.112,27.112,0,0,0-7,4.892C4.069,85.161-.22,90.578.655,95.82c.875,5.5,7.877,7.163,14.091,5.678,7.526-1.66,21.705-11.357,19.342-21.405" transform="translate(0 6.22)" fill="#f79a1d"/>
    <path id="Path_102469" data-name="Path 102469" d="M155.582,39.234c-1.138-3.319-1.051-7.95-6.564-7.863-5.427.174-7.965,3.669-7.965,7.951,0,6.9,17.505,8.212,18.818,22.192.788,8.387-7.353,22.192-23.719,22.366-6.652,0-14.966-2.971-15.053-16.949L132.913,64.4c.088,3.495-.174,9.785,6.565,9.785,5.163,0,7.789-4.8,8.226-8.65.963-8.736-18.554-11.27-18.467-22.453.176-10.485,6.914-21.231,23.018-21.144,16.017.088,13.828,14.416,13.828,14.416l-10.5,2.883Z" transform="translate(10.051 1.822)" fill="#c30b12"/>
    <path id="Path_102470" data-name="Path 102470" d="M177.1,48.052l-6.3,24.812c1.4,2.184,3.152,3.319,5.427,3.233a5.044,5.044,0,0,0,4.114-2.01c1.313-1.485,2.626-4.368,3.676-8.824l2.451-9.611c1.051-4.368,1.313-7.339.7-8.737a2.8,2.8,0,0,0-3.063-2.01C181.917,44.819,179.642,45.868,177.1,48.052ZM169.4,37.83h9.453l-1.4,5.5h.176a22.191,22.191,0,0,1,5.514-4.193,15.387,15.387,0,0,1,7-2.1c3.938,0,6.476,1.573,7.527,4.631s.788,7.513-.788,13.367l-2.8,11.009c-1.4,5.766-3.413,10.309-6.039,13.367a12.542,12.542,0,0,1-9.8,4.63,7.838,7.838,0,0,1-4.026-1.135,25.621,25.621,0,0,1-4.989-3.844l-6.389,25.162H152.686l16.716-66.4Zm89.359,15.639h-10.24l.525-2.01a4.117,4.117,0,0,0-.7-4.019,5.323,5.323,0,0,0-4.026-1.4,7.757,7.757,0,0,0-4.727,1.4,7.064,7.064,0,0,0-2.713,4.019l-4.552,18a4.35,4.35,0,0,0,.612,4.019,5.445,5.445,0,0,0,4.027,1.311,8.338,8.338,0,0,0,4.726-1.311,6.566,6.566,0,0,0,2.626-4.019l.7-2.8h10.328v.173c-1.576,5.941-4.114,10.31-7.615,13.019-3.5,2.8-7.876,4.106-13.041,4.019-5.163.087-8.927-1.311-11.028-4.019-2.188-2.8-2.451-7.078-1.051-13.019l3.152-12.668c1.575-5.941,4.114-10.309,7.614-13.018a20.414,20.414,0,0,1,13.041-4.106c5.077-.088,8.665,1.311,10.853,3.93,2.363,2.535,2.8,6.728,1.487,12.494m36.76,9.523h-22.4l-1.489,6.029c-.525,2.271-.35,3.844.525,4.892a4.839,4.839,0,0,0,3.938,1.572,7.182,7.182,0,0,0,5.076-1.834,8.69,8.69,0,0,0,2.538-4.544h10.328a20.383,20.383,0,0,1-7.264,10.92c-3.413,2.622-7.7,3.846-12.866,3.933-4.989-.087-8.577-1.485-10.764-4.281s-2.714-6.728-1.576-11.795l3.764-14.765a21.3,21.3,0,0,1,7.439-11.707,20.8,20.8,0,0,1,12.953-4.281c4.814.087,8.4,1.485,10.678,4.194,2.275,2.8,2.888,6.466,1.838,11.184Zm-20.3-8.475h12.077l.613-2.533a6.265,6.265,0,0,0-.262-4.806c-.7-1.135-2.1-1.747-4.2-1.747a7.073,7.073,0,0,0-4.989,1.747,8.924,8.924,0,0,0-2.625,4.806Zm81.832,8.475H334.642l-1.489,6.029c-.524,2.271-.35,3.844.525,4.892a4.84,4.84,0,0,0,3.938,1.572,7.571,7.571,0,0,0,5.164-1.834,9.222,9.222,0,0,0,2.451-4.544H355.56a20.754,20.754,0,0,1-7.177,10.92c-3.413,2.622-7.614,3.846-12.865,3.933-4.989-.087-8.577-1.485-10.765-4.281s-2.713-6.728-1.575-11.795l3.676-14.853a21.3,21.3,0,0,1,7.439-11.707,20.8,20.8,0,0,1,12.953-4.281c4.9.088,8.4,1.485,10.678,4.194,2.275,2.8,2.888,6.466,1.751,11.184l-2.627,10.572Zm-20.218-8.475h12.078l.612-2.533a6.264,6.264,0,0,0-.262-4.806c-.7-1.135-2.1-1.747-4.114-1.747a7.456,7.456,0,0,0-5.077,1.747,9.652,9.652,0,0,0-2.713,4.806Zm31.945-6.2h-5.339l2.1-8.475h5.338l3.939-15.726h10.327L381.2,39.839h6.652l-2.1,8.475H379.1l-5.777,23.152a2.213,2.213,0,0,0,.7,2.535,5.214,5.214,0,0,0,3.152.873c.7,0,1.4-.087,2.1-.087l-2.188,8.823a46.777,46.777,0,0,1-6.039.437c-3.413,0-5.952-.7-7.527-2.009-1.575-1.4-2.013-3.757-1.313-6.99l6.565-26.734Z" transform="translate(12.684 2.004)" fill="#c30b12" fill-rule="evenodd"/>
    <path id="Path_102471" data-name="Path 102471" d="M294.717,69.2,302.069,40.1l4.026-15.988h10.328L312.4,40.1,299.881,88.329c-1.576,5.941-4.114,10.223-7.615,12.931-3.5,2.8-7.876,4.106-13.04,4.106-5.251,0-8.927-1.311-11.028-4.106-2.188-2.8-2.538-7.078-1.051-13.019l10.416-.087-.788,2.708c-.35,1.747-.176,3.057.7,3.932a5.464,5.464,0,0,0,4.027,1.4,8.383,8.383,0,0,0,4.726-1.4,6.845,6.845,0,0,0,2.713-3.933l.963-3.668,4.813-18Z" transform="translate(22.151 2.004)" fill="#c30b12"/>
    <path id="Path_102472" data-name="Path 102472" d="M206.4,37.83h10.327L205.345,83.086H195.017Zm11.465-4.194h-10.24l2.362-9.523h10.241Z" transform="translate(16.213 2.004)" fill="#c30b12" fill-rule="evenodd"/>
  </g>
</svg>
