<svg id="Tata_Play" data-name="Tata Play" xmlns="http://www.w3.org/2000/svg" width="400" height="47.007" viewBox="0 0 400 47.007">
  <path id="Path_92074" data-name="Path 92074" d="M867.2,47.228c0-.122,3.2-8.764,12.249-33.032l5.1-13.675h19.744l2.3,5.94c4.215,10.9,15.589,40.64,15.589,40.765,0,.067-4.022.122-8.938.122H904.3l-4.082-11.534c-5.795-16.373-5.714-16.158-5.956-15.906-.121.126-2.211,5.947-4.645,12.937s-4.57,13.112-4.747,13.606l-.321.9h-8.675c-4.771,0-8.675-.054-8.675-.119Z" transform="translate(-567.729 -0.341)" fill="#e10192"/>
  <path id="Path_92075" data-name="Path 92075" d="M13.537,30.372V13.658H0V.121H45.307V13.658H32.046V47.086H13.537Zm28.275,14.95c.352-.97,4.3-11.535,8.767-23.478L58.706.13l9.837,0,9.837,0,5.464,14.3c3.005,7.863,7,18.32,8.88,23.237s3.416,9.053,3.416,9.19a74.377,74.377,0,0,1-8.886.176l-8.886-.073-4.784-13.4c-2.631-7.369-4.882-13.626-5-13.9-.157-.361-1.6,3.489-5.047,13.465L58.706,47.08l-8.767,0-8.767,0Zm64-14.95V13.658H92.548V.121h45.031V13.658H124.594V47.086H105.809Zm27.626,16.594c0-.122,3.2-8.764,12.249-33.032l5.1-13.675h19.744l2.3,5.94c4.214,10.9,15.589,40.64,15.589,40.765,0,.067-4.022.122-8.938.122h-8.937l-4.082-11.534c-5.795-16.373-5.714-16.158-5.956-15.906-.121.126-2.211,5.947-4.645,12.937s-4.57,13.112-4.747,13.606l-.321.9H142.11c-4.771,0-8.675-.054-8.675-.119Z" transform="translate(0 -0.079)"/>
  <path id="Path_92076" data-name="Path 92076" d="M614.4,0V47.006h15.471V36.013l5.594-.129c6.338-.146,7.79-.422,11.5-2.189a16.3,16.3,0,0,0,8.616-10.916,24.809,24.809,0,0,0,.137-9.865c-1.381-5.958-5.81-10.253-12.463-12.091-2.089-.577-2.837-.612-15.525-.714Zm15.471,13.3h3.108c3.8,0,5.007.313,6.322,1.628a5.15,5.15,0,0,1-1.352,7.987c-.97.535-1.712.664-4.617.8l-3.461.163V13.3Zm32.323,10.222V.042h16.3V33.47H696.45V47.006H662.193ZM766.62,40.445V33.884l-8.41-16.921L749.8.042l8.756.013,8.756.013L771.573,8.9c2.343,4.855,4.351,8.827,4.461,8.827s2.274-3.978,4.81-8.84l4.609-8.84H802.23l-1.047,1.865q-1.019,1.822-2.009,3.66c-.529.988-4.216,7.769-8.194,15.07l-7.232,13.274V47.006H766.621V40.445Z" transform="translate(-402.23)" fill="#e10192"/>
</svg>
