<svg xmlns="http://www.w3.org/2000/svg" width="93.09" height="40" viewBox="0 0 93.09 40">
  <g id="NewLogo" transform="translate(-7.263 -8.112)">
    <g id="Group_6811" data-name="Group 6811" transform="translate(7.264 8.112)">
      <g id="Group_6808" data-name="Group 6808" transform="translate(21.591 0)">
        <path id="Path_4187" data-name="Path 4187" d="M261.393,39.914a5.255,5.255,0,0,1-2.121-.452h0l-14.754-6.575a5.248,5.248,0,0,1-2.656-6.916l6.575-14.754a5.248,5.248,0,0,1,6.916-2.656l14.754,6.575a5.248,5.248,0,0,1,2.656,6.916l-6.575,14.754A5.253,5.253,0,0,1,261.393,39.914ZM260.5,36.7a2.22,2.22,0,0,0,2.923-1.116L270,20.826A2.22,2.22,0,0,0,268.88,17.9l-14.763-6.575a2.22,2.22,0,0,0-2.923,1.116L244.619,27.2a2.22,2.22,0,0,0,1.116,2.923Z" transform="translate(-241.412 -8.112)" fill="#089949"/>
      </g>
      <g id="Group_6809" data-name="Group 6809" transform="translate(66.46 5.181)">
        <path id="Path_4188" data-name="Path 4188" d="M749.393,90.931H733.238A5.246,5.246,0,0,1,728,85.693V69.538a5.246,5.246,0,0,1,5.238-5.238h16.155a5.246,5.246,0,0,1,5.238,5.238V85.693A5.246,5.246,0,0,1,749.393,90.931ZM733.238,67.325a2.22,2.22,0,0,0-2.213,2.213V85.693a2.22,2.22,0,0,0,2.213,2.213h16.155a2.22,2.22,0,0,0,2.213-2.213V69.538a2.22,2.22,0,0,0-2.213-2.213Z" transform="translate(-728 -64.3)" fill="#f9b21d"/>
      </g>
      <path id="Path_4189" data-name="Path 4189" d="M34.617,49.137,32.44,54.006c-.028.055-.055.1-.083.148l.848,5.238a2.212,2.212,0,0,1-1.826,2.536L15.428,64.509a2.236,2.236,0,0,1-1.651-.387,2.173,2.173,0,0,1-.885-1.438L10.31,46.73A2.236,2.236,0,0,1,10.7,45.08a2.173,2.173,0,0,1,1.438-.885l15.952-2.582a2.334,2.334,0,0,1,.35-.028,2.223,2.223,0,0,1,2.185,1.863l.858,5.274,2.25-5.044-.12-.71a5.242,5.242,0,0,0-6-4.334L11.656,41.216a5.128,5.128,0,0,0-3.4,2.093,5.2,5.2,0,0,0-.922,3.9L9.913,63.162a5.194,5.194,0,0,0,2.1,3.412,5.133,5.133,0,0,0,3.052.987,5.337,5.337,0,0,0,.848-.065l15.952-2.582a5.242,5.242,0,0,0,4.334-6Z" transform="translate(-7.264 -35.758)" fill="#e42527"/>
      <g id="Group_6810" data-name="Group 6810" transform="translate(45.112 3.161)">
        <path id="Path_4190" data-name="Path 4190" d="M497.864,60.223l2.342-5.247-.664-4.878a2.206,2.206,0,0,1,1.9-2.48l16.008-2.176c.1-.009.2-.018.3-.018a2.226,2.226,0,0,1,1.337.452c.074.055.138.12.2.175a5.275,5.275,0,0,1,2.683-1.512,5.107,5.107,0,0,0-1.06-1.079,5.214,5.214,0,0,0-3.873-1.024l-16.026,2.176a5.158,5.158,0,0,0-3.458,2.019,5.214,5.214,0,0,0-1.024,3.873Z" transform="translate(-496.489 -42.389)" fill="#226db4"/>
        <path id="Path_4191" data-name="Path 4191" d="M546.355,112.591l-2.1-15.491a2.207,2.207,0,0,0-2.13,2.2v4.546L543.368,113a2.206,2.206,0,0,1-1.9,2.48l-16.008,2.176a2.206,2.206,0,0,1-2.48-1.9l-.738-5.431L519.9,115.57l.083.59a5.241,5.241,0,0,0,5.182,4.528,6.28,6.28,0,0,0,.719-.046l15.989-2.158a5.158,5.158,0,0,0,3.458-2.019A5.214,5.214,0,0,0,546.355,112.591Z" transform="translate(-517.741 -92.055)" fill="#226db4"/>
      </g>
    </g>
    <g id="Group_6812" data-name="Group 6812" transform="translate(35.794 43.307)">
      <path id="Path_4192" data-name="Path 4192" d="M316.7,394.9l2.287-3.375h-1.881a.185.185,0,0,1-.184-.184v-.452a.185.185,0,0,1,.184-.184H320.2a.185.185,0,0,1,.184.184v.175a.186.186,0,0,1-.028.1l-2.241,3.375h2.01a.185.185,0,0,1,.184.184v.452a.185.185,0,0,1-.184.184H316.86a.185.185,0,0,1-.184-.184v-.166A.144.144,0,0,1,316.7,394.9Z" transform="translate(-316.673 -390.617)"/>
      <path id="Path_4193" data-name="Path 4193" d="M421.4,392.179a2.311,2.311,0,0,1,2.4-2.379,2.277,2.277,0,0,1,2.4,2.388,2.3,2.3,0,0,1-2.416,2.416A2.273,2.273,0,0,1,421.4,392.179Zm3.7.018c0-.839-.406-1.558-1.319-1.558s-1.273.747-1.273,1.6a1.371,1.371,0,0,0,1.319,1.54C424.738,393.765,425.1,392.981,425.1,392.2Z" transform="translate(-411.743 -389.8)"/>
      <path id="Path_4194" data-name="Path 4194" d="M542.768,390.6h.682a.185.185,0,0,1,.184.184V392.5h1.936v-1.715a.185.185,0,0,1,.184-.184h.682a.185.185,0,0,1,.184.184v4.288a.185.185,0,0,1-.184.184h-.673a.185.185,0,0,1-.184-.184v-1.734h-1.936v1.734a.185.185,0,0,1-.184.184h-.682a.185.185,0,0,1-.184-.184v-4.288A.172.172,0,0,1,542.768,390.6Z" transform="translate(-521.76 -390.526)"/>
      <path id="Path_4195" data-name="Path 4195" d="M655.4,392.179a2.311,2.311,0,0,1,2.4-2.379,2.277,2.277,0,0,1,2.4,2.388,2.3,2.3,0,0,1-2.416,2.416A2.273,2.273,0,0,1,655.4,392.179Zm3.688.018c0-.839-.406-1.558-1.319-1.558s-1.273.747-1.273,1.6a1.371,1.371,0,0,0,1.319,1.54C658.729,393.765,659.089,392.981,659.089,392.2Z" transform="translate(-624.166 -389.8)"/>
    </g>
  </g>
</svg>
